<?xml version="1.0" encoding="UTF-8" standalone="no"?>
<!-- Created with Inkscape (http://www.inkscape.org/) -->

<svg
   width="68.160095mm"
   height="17.211386mm"
   viewBox="0 0 68.160094 17.211386"
   version="1.1"
   id="svg5"
   inkscape:version="1.1.1 (3bf5ae0d25, 2021-09-20)"
   sodipodi:docname="channelBox.svg"
   xmlns:inkscape="http://www.inkscape.org/namespaces/inkscape"
   xmlns:sodipodi="http://sodipodi.sourceforge.net/DTD/sodipodi-0.dtd"
   xmlns="http://www.w3.org/2000/svg"
   xmlns:svg="http://www.w3.org/2000/svg">
  <sodipodi:namedview
     id="namedview7"
     pagecolor="#ffffff"
     bordercolor="#666666"
     borderopacity="1.0"
     inkscape:pageshadow="2"
     inkscape:pageopacity="0.0"
     inkscape:pagecheckerboard="0"
     inkscape:document-units="mm"
     showgrid="false"
     inkscape:zoom="1.8101934"
     inkscape:cx="185.61553"
     inkscape:cy="43.08932"
     inkscape:window-width="1920"
     inkscape:window-height="1018"
     inkscape:window-x="-6"
     inkscape:window-y="-6"
     inkscape:window-maximized="1"
     inkscape:current-layer="layer1" />
  <defs
     id="defs2" />
  <g
     inkscape:label="Layer 1"
     inkscape:groupmode="layer"
     id="layer1"
     style="display:inline"
     transform="translate(-8.6235713,-15.212549)">
    <path
       style="display:inline;fill:#8c8c8c;fill-opacity:1;stroke-width:0.0374449"
       d="m 14.252911,32.246556 c -0.155571,-0.09534 -0.32252,-0.202713 -0.371006,-0.238591 -0.08607,-0.0637 -2.71033,-1.697286 -3.294699,-2.050923 -0.161831,-0.09793 -0.407885,-0.273465 -0.546786,-0.390078 L 9.7878723,29.354953 V 23.731229 18.107495 L 9.9912459,17.97711 c 0.1118551,-0.07172 0.2345931,-0.140532 0.2727511,-0.152927 0.08217,-0.02668 0.181189,-0.08689 2.080939,-1.265302 0.804922,-0.499288 1.481675,-0.925823 1.503901,-0.94785 0.02222,-0.02199 0.171958,-0.120699 0.332742,-0.219267 l 0.292336,-0.179215 h 28.32856 28.328558 l 0.250333,0.144674 c 0.13768,0.07957 1.023123,0.623261 1.967652,1.208197 0.944526,0.584927 1.903702,1.176367 2.131501,1.314293 l 0.414174,0.250792 v 5.683922 c 0,5.370117 -0.0039,5.686816 -0.07071,5.736433 -0.03889,0.02886 -0.252549,0.159731 -0.47479,0.290769 -0.329318,0.194184 -2.63018,1.616695 -3.884771,2.401775 l -0.2885,0.180531 -28.32008,-0.0024 -28.320078,-0.0024 -0.282852,-0.173344 z m 57.928824,-0.899304 c 0.586443,-0.363154 1.552008,-0.960435 2.145691,-1.327296 l 1.07943,-0.667003 v -5.534711 -5.534711 l -1.07943,-0.667003 C 73.733743,17.249667 72.768178,16.652386 72.181735,16.289232 L 71.115471,15.628958 H 42.841285 14.567096 l -1.066264,0.660274 c -0.586444,0.363154 -1.552006,0.960435 -2.145693,1.327296 l -1.07943,0.667003 -3.1e-5,5.517362 -3.2e-5,5.517355 1.17934,0.728708 c 0.648636,0.400794 1.607163,0.994165 2.13006,1.318614 l 0.950717,0.589914 1.777937,0.01808 c 0.977862,0.0099 13.708297,0.02161 28.289849,0.02605 l 26.511922,0.0079 z M 71.08619,30.799864 v -0.514166 l 0.264241,-0.150275 c 0.145332,-0.08265 0.326167,-0.191021 0.401859,-0.240816 0.165027,-0.108578 0.439533,-0.278931 0.565313,-0.350802 0.08396,-0.04798 0.311653,-0.186894 0.785054,-0.478946 0.102163,-0.06303 0.226662,-0.139002 0.276662,-0.168825 l 0.09092,-0.05422 v -4.936823 -4.936825 l -0.09092,-0.05422 c -0.05,-0.02983 -0.174499,-0.105789 -0.276662,-0.168814 -0.473401,-0.292058 -0.701091,-0.430969 -0.785054,-0.478951 -0.12578,-0.07187 -0.400286,-0.242219 -0.565313,-0.350797 -0.07569,-0.0498 -0.256527,-0.158173 -0.401859,-0.24083 L 71.08619,17.524293 V 17.01013 16.495962 l 0.212142,0.128397 c 0.410867,0.248665 0.538811,0.326695 0.89907,0.548299 0.602154,0.370393 0.732152,0.44988 1.377787,0.842509 0.179955,0.10943 0.416344,0.25206 0.5253,0.316948 0.108959,0.06489 0.23902,0.149595 0.289023,0.188222 l 0.09092,0.07025 -3.52e-4,5.32913 -3.51e-4,5.329143 -0.288665,0.173498 c -0.280479,0.168578 -0.776414,0.469394 -1.10499,0.670243 -0.08889,0.05435 -0.243452,0.148809 -0.343466,0.209925 -0.100007,0.06111 -0.345482,0.21178 -0.545498,0.334806 -0.36026,0.221609 -0.488207,0.299628 -0.899071,0.548298 l -0.212142,0.128397 v -0.51416 z m -56.813075,0.230981 c -0.122234,-0.07633 -0.285882,-0.176569 -0.363669,-0.222772 -0.07778,-0.0462 -0.305078,-0.185066 -0.505095,-0.308621 -0.200018,-0.123536 -0.440949,-0.27198 -0.5354,-0.329882 -0.41787,-0.256131 -1.101093,-0.671168 -1.458555,-0.88602 l -0.288666,-0.173501 -2.07e-4,-5.32913 -2.07e-4,-5.329134 0.09092,-0.07025 c 0.05,-0.03864 0.180065,-0.12334 0.289023,-0.188233 0.108959,-0.06489 0.345343,-0.207515 0.525299,-0.316947 0.179956,-0.109433 0.409018,-0.248701 0.509027,-0.309486 0.100009,-0.06078 0.254568,-0.155246 0.343466,-0.209914 0.08889,-0.05468 0.325278,-0.200079 0.525296,-0.323109 0.360262,-0.221591 0.488199,-0.299617 0.89907,-0.54829 l 0.212141,-0.128396 v 0.514157 0.514164 l -0.264242,0.150278 c -0.145331,0.08265 -0.326167,0.19102 -0.401859,0.240825 -0.165027,0.108578 -0.439534,0.278917 -0.565313,0.350799 -0.08396,0.04798 -0.311652,0.186892 -0.785052,0.47895 -0.102162,0.06303 -0.226662,0.138991 -0.276666,0.168819 l -0.09092,0.05422 v 4.936813 4.936829 l 0.09092,0.05423 c 0.05,0.02983 0.174504,0.105787 0.276666,0.168811 0.4734,0.292055 0.701089,0.430969 0.785052,0.47895 0.125779,0.07188 0.400286,0.242221 0.565313,0.350798 0.07569,0.04981 0.256528,0.158172 0.401859,0.24083 l 0.264242,0.150272 v 0.513909 c 0,0.282652 -0.0046,0.512764 -0.01009,0.511365 -0.0056,-0.0016 -0.110111,-0.065 -0.232346,-0.14133 z M 76.54264,28.053966 c -0.02821,-0.04526 -0.04183,-1.513319 -0.04183,-4.508567 0,-3.989035 0.0065,-4.446993 0.06342,-4.495912 0.04787,-0.04111 0.08255,-0.04567 0.141427,-0.0186 0.07646,0.03518 0.07801,0.125156 0.07801,4.521387 0,3.44249 -0.01129,4.495229 -0.04849,4.527184 -0.07081,0.06081 -0.14487,0.05101 -0.192534,-0.02546 z M 8.6612531,27.831098 c -0.033336,-0.03451 -0.042767,-1.229631 -0.035255,-4.467672 l 0.010257,-4.420583 h 0.101019 0.1010191 l 0.010257,4.420583 c 0.010127,4.365178 0.00644,4.514756 -0.1112756,4.514756 -0.016783,0 -0.050992,-0.02122 -0.076022,-0.04708 z"
       id="path323" />
  </g>
</svg>
