<?xml version="1.0" encoding="UTF-8" standalone="no"?>
<!-- Created with Inkscape (http://www.inkscape.org/) -->

<svg
   width="141.43599mm"
   height="76.835236mm"
   viewBox="0 0 141.43599 76.835236"
   version="1.1"
   id="svg5"
   inkscape:version="1.1.1 (3bf5ae0d25, 2021-09-20)"
   sodipodi:docname="messageBox.svg"
   xmlns:inkscape="http://www.inkscape.org/namespaces/inkscape"
   xmlns:sodipodi="http://sodipodi.sourceforge.net/DTD/sodipodi-0.dtd"
   xmlns="http://www.w3.org/2000/svg"
   xmlns:svg="http://www.w3.org/2000/svg">
  <sodipodi:namedview
     id="namedview7"
     pagecolor="#ffffff"
     bordercolor="#666666"
     borderopacity="1.0"
     inkscape:pageshadow="2"
     inkscape:pageopacity="0.0"
     inkscape:pagecheckerboard="0"
     inkscape:document-units="mm"
     showgrid="false"
     inkscape:zoom="0.74118967"
     inkscape:cx="20.237735"
     inkscape:cy="406.10388"
     inkscape:window-width="1920"
     inkscape:window-height="1018"
     inkscape:window-x="-6"
     inkscape:window-y="-6"
     inkscape:window-maximized="1"
     inkscape:current-layer="layer1" />
  <defs
     id="defs2" />
  <g
     inkscape:label="Layer 1"
     inkscape:groupmode="layer"
     id="layer1"
     transform="translate(-7.147076,-6.830307)">
    <g
       id="g306"
       style="display:inline"
       transform="translate(-17.491587,-80.675481)">
      <path
         style="display:inline;fill:#d0d0d0;fill-opacity:1;stroke-width:0.0846667"
         d="m 46.305863,161.21919 c -0.02447,-0.0638 -0.03032,-0.32093 -0.013,-0.5715 l 0.03148,-0.45557 0.01566,0.52911 0.01566,0.5291 56.155167,0.0213 56.15516,0.0213 -56.15782,0.0211 c -47.469828,0.0178 -56.164703,0.003 -56.202306,-0.0948 z m -19.975797,-11.9914 c 0,-3.84175 0.01038,-5.41338 0.02307,-3.4925 0.01269,1.92087 0.01269,5.06412 0,6.985 -0.01269,1.92087 -0.02307,0.34925 -0.02307,-3.4925 z m 130.297904,-0.889 c 5e-5,-1.07104 0.0122,-1.49751 0.027,-0.94773 0.0148,0.54979 0.0147,1.42609 0,1.94734 -0.0148,0.52125 -0.0269,0.0714 -0.0268,-0.99961 z m 1.21252,-40.57425 c 0.15135,-0.0188 0.399,-0.0188 0.55034,0 0.15134,0.0188 0.0275,0.0341 -0.27517,0.0341 -0.30268,0 -0.42651,-0.0154 -0.27517,-0.0341 z m 4.88146,-3.26192 -0.16129,-0.1905 0.1905,0.16129 c 0.17902,0.15157 0.22904,0.21971 0.16129,0.21971 -0.0161,0 -0.10179,-0.0857 -0.1905,-0.1905 z m 1.14024,-0.381 c -0.10531,-0.13429 -0.10232,-0.13728 0.032,-0.032 0.0815,0.0639 0.14817,0.13059 0.14817,0.14817 0,0.0697 -0.0695,0.0248 -0.18014,-0.1162 z m -2.83357,-1.22767 -0.16129,-0.1905 0.1905,0.16129 c 0.17902,0.15158 0.22904,0.21971 0.16129,0.21971 -0.0161,0 -0.1018,-0.0857 -0.1905,-0.1905 z m 1.18533,-0.33866 -0.16129,-0.1905 0.1905,0.16129 c 0.17902,0.15157 0.22904,0.21971 0.16129,0.21971 -0.0161,0 -0.10179,-0.0857 -0.1905,-0.1905 z m -2.83909,-1.22767 c -0.10531,-0.13429 -0.10232,-0.13728 0.032,-0.032 0.14103,0.11061 0.18588,0.18014 0.11619,0.18014 -0.0176,0 -0.0842,-0.0667 -0.14816,-0.14817 z m 1.14576,-0.381 -0.16129,-0.1905 0.1905,0.16129 c 0.17902,0.15157 0.22904,0.21971 0.16129,0.21971 -0.0161,0 -0.1018,-0.0857 -0.1905,-0.1905 z m -2.794,-1.185332 -0.16129,-0.1905 0.1905,0.161289 c 0.17902,0.151572 0.22904,0.219711 0.16129,0.219711 -0.0161,0 -0.1018,-0.08572 -0.1905,-0.1905 z m 1.14024,-0.381 c -0.10531,-0.134287 -0.10232,-0.137282 0.032,-0.03197 0.0815,0.06391 0.14816,0.130585 0.14816,0.148166 0,0.06968 -0.0695,0.02483 -0.18013,-0.116199 z m -124.491531,-0.9525 c 0.08429,-0.09313 0.172295,-0.169334 0.195578,-0.169334 0.02328,0 -0.02663,0.0762 -0.110911,0.169334 -0.08428,0.09313 -0.172295,0.169333 -0.195578,0.169333 -0.02328,0 0.02663,-0.0762 0.110911,-0.169333 z m 121.657951,-0.275167 -0.16129,-0.1905 0.1905,0.161289 c 0.17902,0.151572 0.22904,0.219711 0.16129,0.219711 -0.0161,0 -0.10179,-0.08572 -0.1905,-0.1905 z m -129.706397,-2.4765 c 4.2e-5,-1.303867 0.0118,-1.825436 0.02612,-1.159044 0.01432,0.666392 0.01429,1.733192 -7.8e-5,2.370666 -0.01436,0.637475 -0.02608,0.09225 -0.02604,-1.211622 z m 130.891737,2.137833 -0.16129,-0.1905 0.1905,0.161289 c 0.17902,0.151572 0.22904,0.219711 0.16129,0.219711 -0.0161,0 -0.1018,-0.08572 -0.1905,-0.1905 z M 36.576662,97.665788 c 0.08429,-0.09313 0.172295,-0.169334 0.195579,-0.169334 0.02328,0 -0.02663,0.0762 -0.110912,0.169334 -0.08429,0.09313 -0.172295,0.169333 -0.195578,0.169333 -0.02328,0 0.02663,-0.0762 0.110911,-0.169333 z m 117.802858,-1.0795 c -0.10531,-0.134287 -0.10232,-0.137281 0.032,-0.03197 0.0815,0.06391 0.14817,0.130585 0.14817,0.148167 0,0.06968 -0.0695,0.02483 -0.18014,-0.1162 z M 36.280329,96.438121 c 0.109368,-0.116417 0.217901,-0.211667 0.241184,-0.211667 0.02328,0 -0.04715,0.09525 -0.156517,0.211667 -0.109368,0.116417 -0.217901,0.211667 -0.241184,0.211667 -0.02328,0 0.04715,-0.09525 0.156517,-0.211667 z m 119.244951,-0.232833 -0.16129,-0.1905 0.1905,0.161289 c 0.17902,0.151572 0.22904,0.219711 0.16129,0.219711 -0.0161,0 -0.10179,-0.08572 -0.1905,-0.1905 z M 38.481662,95.676121 c 0.109369,-0.116417 0.217901,-0.211667 0.241184,-0.211667 0.02328,0 -0.04715,0.09525 -0.156517,0.211667 -0.109368,0.116417 -0.217901,0.211667 -0.241184,0.211667 -0.02328,0 0.04715,-0.09525 0.156517,-0.211667 z m 114.249618,-0.656167 -0.16129,-0.1905 0.1905,0.161289 c 0.17902,0.151572 0.22904,0.219711 0.16129,0.219711 -0.0161,0 -0.10179,-0.08572 -0.1905,-0.1905 z M 64.199162,94.892955 c 13.748808,-0.0118 36.246858,-0.0118 49.995668,0 13.74881,0.0118 2.49978,0.02145 -24.997835,0.02145 -27.497616,0 -38.746641,-0.0097 -24.997833,-0.02145 z m 89.632788,-0.296334 -0.16129,-0.1905 0.1905,0.161289 c 0.17902,0.151572 0.22904,0.219711 0.16129,0.219711 -0.0161,0 -0.10179,-0.08572 -0.1905,-0.1905 z M 38.185329,94.448454 c 0.08428,-0.09313 0.172295,-0.169333 0.195578,-0.169333 0.02328,0 -0.02663,0.0762 -0.110911,0.169333 -0.08429,0.09313 -0.172295,0.169334 -0.195579,0.169334 -0.02328,0 0.02663,-0.0762 0.110912,-0.169334 z m 112.852621,-1.037166 -0.16129,-0.1905 0.1905,0.161289 c 0.17902,0.151572 0.22904,0.219711 0.16129,0.219711 -0.0161,0 -0.10179,-0.08572 -0.1905,-0.1905 z m 1.14024,-0.381 c -0.10531,-0.134287 -0.10232,-0.137281 0.032,-0.03197 0.0815,0.06391 0.14817,0.130586 0.14817,0.148167 0,0.06968 -0.0695,0.02483 -0.18014,-0.1162 z m -50.30236,-1.015999 c 8.48677,-0.01189 22.37422,-0.01189 30.861,0 8.48677,0.01189 1.54305,0.02162 -15.4305,0.02162 -16.97355,0 -23.917277,-0.0097 -15.4305,-0.02162 z m 47.50836,-0.169335 c -0.10531,-0.134286 -0.10232,-0.137281 0.032,-0.03197 0.0815,0.06391 0.14817,0.130585 0.14817,0.148166 0,0.06968 -0.0695,0.02483 -0.18014,-0.1162 z M 63.749306,89.707121 c 0,-1.234017 0.01184,-1.738842 0.0263,-1.121833 0.01447,0.617008 0.01447,1.626658 0,2.243666 -0.01447,0.617009 -0.0263,0.112184 -0.0263,-1.121833 z m 0.592667,0 c 0,-1.234017 0.01184,-1.738842 0.0263,-1.121833 0.01447,0.617008 0.01447,1.626658 0,2.243666 -0.01447,0.617009 -0.0263,0.112184 -0.0263,-1.121833 z m 7.027333,0 c 0,-1.234017 0.01184,-1.738842 0.0263,-1.121833 0.01447,0.617008 0.01447,1.626658 0,2.243666 -0.01447,0.617009 -0.0263,0.112184 -0.0263,-1.121833 z m 3.725333,0 c 0,-1.234017 0.01184,-1.738842 0.0263,-1.121833 0.01447,0.617008 0.01447,1.626658 0,2.243666 -0.01447,0.617009 -0.0263,0.112184 -0.0263,-1.121833 z m 0.592667,0 c 0,-1.234017 0.01184,-1.738842 0.0263,-1.121833 0.01447,0.617008 0.01447,1.626658 0,2.243666 -0.01447,0.617009 -0.0263,0.112184 -0.0263,-1.121833 z m 5.334,0 c 0,-1.234017 0.01184,-1.738842 0.0263,-1.121833 0.01447,0.617008 0.01447,1.626658 0,2.243666 -0.01447,0.617009 -0.0263,0.112184 -0.0263,-1.121833 z m 69.508644,1.756833 -0.16129,-0.1905 0.1905,0.16129 c 0.17902,0.151571 0.22904,0.21971 0.16129,0.21971 -0.0161,0 -0.10179,-0.08572 -0.1905,-0.1905 z"
         id="path314" />
      <path
         style="display:inline;fill:#b9b9b9;fill-opacity:1;stroke-width:0.0846667"
         d="m 68.644162,164.31962 c 17.543991,-0.0118 46.252338,-0.0118 63.796328,0 17.544,0.0118 3.18982,0.0214 -31.89816,0.0214 -35.087985,0 -49.442159,-0.01 -31.898168,-0.0214 z m 96.572698,-3.302 c -0.10531,-0.13429 -0.10232,-0.13728 0.032,-0.032 0.0815,0.0639 0.14816,0.13059 0.14816,0.14817 0,0.0697 -0.0695,0.0248 -0.18013,-0.1162 z m -129.152696,-4.7625 c 0,-1.51342 0.01148,-2.13254 0.02551,-1.37583 0.01403,0.7567 0.01403,1.99495 0,2.75166 -0.01403,0.75671 -0.02551,0.13759 -0.02551,-1.37583 z m 9.719998,2.6471 c 0.221192,-0.0174 0.583142,-0.0174 0.804334,0 0.221191,0.0174 0.04022,0.0317 -0.402167,0.0317 -0.442383,0 -0.623358,-0.0143 -0.402167,-0.0317 z m -11.324718,-4.31653 0.465962,-0.0323 0.02149,-27.59712 0.02149,-27.59711 -1.69e-4,27.6225 -1.7e-4,27.6225 -0.487257,0.007 -0.487257,0.007 0.465962,-0.0324 z m -9.535248,-13.63407 c -0.105314,-0.13429 -0.10232,-0.13728 0.03197,-0.032 0.08149,0.0639 0.148166,0.13059 0.148166,0.14817 0,0.0697 -0.06953,0.0248 -0.180133,-0.1162 z m 139.191994,-36.576 c -0.10531,-0.13429 -0.10232,-0.13728 0.032,-0.032 0.0815,0.0639 0.14817,0.13059 0.14817,0.14817 0,0.0697 -0.0695,0.0248 -0.18014,-0.1162 z m -1.73291,-0.21167 -0.16129,-0.1905 0.1905,0.16129 c 0.17902,0.15158 0.22904,0.21971 0.16129,0.21971 -0.0161,0 -0.10179,-0.0857 -0.1905,-0.1905 z m 0.16934,-1.27 -0.16129,-0.1905 0.1905,0.16129 c 0.17902,0.15158 0.22904,0.21971 0.16129,0.21971 -0.0161,0 -0.1018,-0.0857 -0.1905,-0.1905 z m -1.86267,-0.33866 -0.16129,-0.1905 0.1905,0.16129 c 0.17902,0.15157 0.22904,0.21971 0.16129,0.21971 -0.0161,0 -0.10179,-0.0857 -0.1905,-0.1905 z m 0.16933,-1.27 -0.16129,-0.1905 0.1905,0.16129 c 0.17902,0.15157 0.22904,0.21971 0.16129,0.21971 -0.0161,0 -0.10179,-0.0857 -0.1905,-0.1905 z m -1.778,-0.254 -0.16129,-0.1905 0.1905,0.16129 c 0.17902,0.15157 0.22904,0.21971 0.16129,0.21971 -0.0161,0 -0.10179,-0.0857 -0.1905,-0.1905 z m 0.0847,-1.354669 -0.16129,-0.1905 0.1905,0.161289 c 0.17902,0.151572 0.22904,0.219711 0.16129,0.219711 -0.0161,0 -0.10179,-0.08572 -0.1905,-0.1905 z m -1.778,-0.254 -0.16129,-0.1905 0.1905,0.161289 c 0.17902,0.151572 0.22904,0.219711 0.16129,0.219711 -0.0161,0 -0.10179,-0.08573 -0.1905,-0.1905 z m 0.16933,-1.27 -0.16129,-0.1905 0.1905,0.161289 c 0.17902,0.151572 0.22904,0.219711 0.16129,0.219711 -0.0161,0 -0.10179,-0.08572 -0.1905,-0.1905 z M 34.756329,98.046788 c 0.109368,-0.116417 0.217901,-0.211667 0.241184,-0.211667 0.02328,0 -0.04715,0.09525 -0.156517,0.211667 -0.109368,0.116416 -0.217901,0.211666 -0.241184,0.211666 -0.02328,0 0.04715,-0.09525 0.156517,-0.211666 z m 1.439333,0 c 0.109369,-0.116417 0.217901,-0.211667 0.241184,-0.211667 0.02328,0 -0.04715,0.09525 -0.156517,0.211667 -0.109368,0.116416 -0.217901,0.211666 -0.241184,0.211666 -0.02328,0 0.04715,-0.09525 0.156517,-0.211666 z m 119.498958,-0.232834 -0.16129,-0.1905 0.1905,0.161289 c 0.17902,0.151572 0.22904,0.219711 0.16129,0.219711 -0.0161,0 -0.1018,-0.08572 -0.1905,-0.1905 z m 0.16933,-1.27 -0.16129,-0.1905 0.1905,0.161289 c 0.17902,0.151572 0.22904,0.219711 0.16129,0.219711 -0.0161,0 -0.10179,-0.08572 -0.1905,-0.1905 z m -1.8187,-0.296333 -0.20526,-0.232833 0.23284,0.205258 c 0.12806,0.112893 0.23283,0.217668 0.23283,0.232833 0,0.0664 -0.0686,0.01236 -0.26041,-0.205258 z M 38.058329,96.099454 c 0.109368,-0.116416 0.217901,-0.211666 0.241184,-0.211666 0.02328,0 -0.04715,0.09525 -0.156517,0.211666 -0.109368,0.116417 -0.217901,0.211667 -0.241184,0.211667 -0.02328,0 0.04715,-0.09525 0.156517,-0.211667 z m -1.354667,-0.08467 c 0.109369,-0.116417 0.217901,-0.211667 0.241184,-0.211667 0.02328,0 -0.04715,0.09525 -0.156517,0.211667 -0.109368,0.116416 -0.217901,0.211666 -0.241184,0.211666 -0.02328,0 0.04715,-0.09525 0.156517,-0.211666 z m 117.466958,-1.0795 -0.16129,-0.1905 0.1905,0.161289 c 0.17902,0.151572 0.22904,0.219711 0.16129,0.219711 -0.0161,0 -0.1018,-0.08572 -0.1905,-0.1905 z m -14.99319,-0.5715 c 0,-0.302684 0.0154,-0.426509 0.0341,-0.275167 0.0188,0.151342 0.0188,0.398992 0,0.550333 -0.0188,0.151342 -0.0341,0.02752 -0.0341,-0.275166 z m 13.21519,0.3175 -0.16129,-0.1905 0.1905,0.161289 c 0.17902,0.151572 0.22904,0.219711 0.16129,0.219711 -0.0161,0 -0.1018,-0.08572 -0.1905,-0.1905 z M 38.566329,94.067454 c 0.109368,-0.116416 0.217901,-0.211666 0.241184,-0.211666 0.02328,0 -0.04715,0.09525 -0.156517,0.211666 -0.109368,0.116417 -0.217901,0.211667 -0.241184,0.211667 -0.02328,0 0.04715,-0.09525 0.156517,-0.211667 z m 113.954921,-0.6985 -0.20526,-0.232833 0.23284,0.205258 c 0.21762,0.191846 0.27166,0.260409 0.20525,0.260409 -0.0152,0 -0.11993,-0.104775 -0.23283,-0.232834 z m -1.82197,-0.296333 -0.16129,-0.1905 0.1905,0.161289 c 0.17902,0.151572 0.22904,0.219711 0.16129,0.219711 -0.0161,0 -0.10179,-0.08572 -0.1905,-0.1905 z m 0.16934,-1.27 -0.16129,-0.1905 0.1905,0.161289 c 0.17902,0.151572 0.22904,0.219711 0.16129,0.219711 -0.0161,0 -0.1018,-0.08572 -0.1905,-0.1905 z m -82.801314,-2.0955 c 0,-1.234017 0.01184,-1.738842 0.0263,-1.121833 0.01447,0.617008 0.01447,1.626658 0,2.243666 -0.01447,0.617009 -0.0263,0.112184 -0.0263,-1.121833 z m 9.736666,0 c 0,-1.234017 0.01184,-1.738842 0.0263,-1.121833 0.01447,0.617008 0.01447,1.626658 0,2.243666 -0.01447,0.617009 -0.0263,0.112184 -0.0263,-1.121833 z m 3.725334,0 c 0,-1.234017 0.01184,-1.738842 0.0263,-1.121833 0.01447,0.617008 0.01447,1.626658 0,2.243666 -0.01447,0.617009 -0.0263,0.112184 -0.0263,-1.121833 z m 67.520614,1.799167 -0.20526,-0.232834 0.23283,0.205259 c 0.21762,0.191845 0.27167,0.260408 0.20526,0.260408 -0.0152,0 -0.11994,-0.104775 -0.23283,-0.232833 z m -88.443159,-1.2065 c 0,-0.302684 0.01537,-0.426509 0.03415,-0.275167 0.01878,0.151342 0.01878,0.398992 0,0.550333 -0.01878,0.151342 -0.03415,0.02752 -0.03415,-0.275166 z"
         id="path312" />
      <path
         style="display:inline;fill:#a3a3a3;fill-opacity:1;stroke-width:0.0846667"
         d="m 68.644162,163.30362 c 17.357725,-0.0118 45.761278,-0.0118 63.118998,0 17.35773,0.0118 3.15595,0.0214 -31.5595,0.0214 -34.715448,0 -48.917223,-0.01 -31.559498,-0.0214 z m 96.318698,-2.54 c -0.10531,-0.13429 -0.10232,-0.13728 0.032,-0.032 0.0815,0.0639 0.14816,0.13059 0.14816,0.14817 0,0.0697 -0.0695,0.0248 -0.18013,-0.1162 z M 42.609162,158.90125 c 0.523875,-0.0149 1.381125,-0.0149 1.905,0 0.523875,0.0148 0.09525,0.027 -0.9525,0.027 -1.04775,0 -1.476375,-0.0122 -0.9525,-0.027 z M 33.95149,126.74879 c 0,-15.32044 0.0098,-21.57527 0.02167,-13.89964 0.01192,7.67564 0.01192,20.21054 0,27.85534 -0.01192,7.6448 -0.02167,1.36473 -0.02167,-13.9557 z m 2.112612,24.13 c 3.4e-5,-1.49014 0.01156,-2.08782 0.0256,-1.32817 0.01405,0.75964 0.01402,1.97884 -6.2e-5,2.70933 -0.01408,0.73049 -0.02557,0.10897 -0.02554,-1.38116 z m -10.417483,-9.29217 -0.16129,-0.1905 0.1905,0.16129 c 0.104775,0.0887 0.1905,0.17443 0.1905,0.1905 0,0.0678 -0.06814,0.0177 -0.21971,-0.16129 z m 136.316051,-37.846 -0.24868,-0.27517 0.27517,0.24868 c 0.2565,0.2318 0.31409,0.30166 0.24867,0.30166 -0.0146,0 -0.13839,-0.12383 -0.27516,-0.27517 z m 1.016,-0.42333 -0.24868,-0.27517 0.27517,0.24867 c 0.2565,0.2318 0.31409,0.30166 0.24867,0.30166 -0.0146,0 -0.13839,-0.12382 -0.27516,-0.27516 z m -2.70934,-1.18534 -0.24867,-0.27516 0.27517,0.24867 c 0.15134,0.13677 0.27516,0.2606 0.27516,0.27517 0,0.0654 -0.0699,0.008 -0.30166,-0.24868 z m 1.016,-0.42333 -0.24867,-0.27517 0.27517,0.24868 c 0.25649,0.2318 0.31408,0.30166 0.24867,0.30166 -0.0146,0 -0.13839,-0.12383 -0.27517,-0.27517 z m -2.66622,-1.143 -0.29178,-0.3175 0.3175,0.29178 c 0.17462,0.16047 0.3175,0.30335 0.3175,0.3175 0,0.0647 -0.0717,0.004 -0.34322,-0.29178 z m 1.01599,-0.42333 -0.29177,-0.317502 0.3175,0.291772 c 0.17462,0.16048 0.3175,0.30335 0.3175,0.3175 0,0.0647 -0.0717,0.004 -0.34323,-0.29177 z m -2.66777,-1.143002 -0.24867,-0.275167 0.27517,0.248673 c 0.25649,0.231799 0.31408,0.30166 0.24867,0.30166 -0.0146,0 -0.13839,-0.123825 -0.27517,-0.275166 z m -121.279668,-0.4445 c 0.15797,-0.162984 0.306268,-0.296334 0.329551,-0.296334 0.02328,0 -0.08691,0.13335 -0.244884,0.296334 -0.157969,0.162983 -0.306267,0.296333 -0.32955,0.296333 -0.02328,0 0.08691,-0.13335 0.244883,-0.296333 z m 122.295668,0.02117 -0.24867,-0.275166 0.27517,0.248673 c 0.25649,0.231799 0.31408,0.30166 0.24867,0.30166 -0.0146,0 -0.13839,-0.123825 -0.27517,-0.275167 z m -132.542006,-1.397 -0.802661,-0.8255 0.8255,0.802661 c 0.766716,0.745504 0.864014,0.848339 0.802661,0.848339 -0.01256,0 -0.384036,-0.371475 -0.8255,-0.8255 z m 9.823005,0.359834 c 0.15797,-0.162984 0.306267,-0.296334 0.329551,-0.296334 0.02328,0 -0.08691,0.13335 -0.244884,0.296334 -0.15797,0.162983 -0.306267,0.296333 -0.329551,0.296333 -0.02328,0 0.08692,-0.13335 0.244884,-0.296333 z M 155.274,97.390621 l -0.24867,-0.275167 0.27516,0.248674 c 0.2565,0.231799 0.31409,0.30166 0.24868,0.30166 -0.0146,0 -0.1384,-0.123825 -0.27517,-0.275167 z m 1.016,-0.423333 -0.24867,-0.275167 0.27516,0.248674 c 0.2565,0.231798 0.31409,0.301659 0.24868,0.301659 -0.0146,0 -0.1384,-0.123825 -0.27517,-0.275166 z M 37.550329,96.607454 c 0.15797,-0.162983 0.306267,-0.296333 0.329551,-0.296333 0.02328,0 -0.08691,0.13335 -0.244884,0.296333 -0.15797,0.162984 -0.306267,0.296334 -0.329551,0.296334 -0.02328,0 0.08691,-0.13335 0.244884,-0.296334 z m 116.030341,-0.8255 -0.24868,-0.275166 0.27517,0.248673 c 0.2565,0.231799 0.31409,0.30166 0.24867,0.30166 -0.0146,0 -0.13839,-0.123825 -0.27516,-0.275167 z M 37.211662,95.506788 c 0.15797,-0.162984 0.306268,-0.296334 0.329551,-0.296334 0.02328,0 -0.08691,0.13335 -0.244884,0.296334 -0.157969,0.162983 -0.306267,0.296333 -0.32955,0.296333 -0.02328,0 0.08691,-0.13335 0.244883,-0.296333 z m 117.385008,-0.148167 -0.24868,-0.275167 0.27517,0.248674 c 0.2565,0.231799 0.31409,0.30166 0.24867,0.30166 -0.0146,0 -0.13839,-0.123825 -0.27516,-0.275167 z m -2.62467,-1.100667 -0.24867,-0.275166 0.27516,0.248673 c 0.15135,0.136771 0.27517,0.260596 0.27517,0.275167 0,0.06541 -0.0699,0.0078 -0.30166,-0.248674 z m 1.016,-0.423333 -0.24867,-0.275167 0.27516,0.248674 c 0.2565,0.231799 0.31409,0.30166 0.24868,0.30166 -0.0146,0 -0.1384,-0.123825 -0.27517,-0.275167 z m -2.70933,-1.185333 -0.24868,-0.275167 0.27517,0.248674 c 0.2565,0.231798 0.31409,0.301659 0.24867,0.301659 -0.0146,0 -0.13839,-0.123825 -0.27516,-0.275166 z m 1.016,-0.423334 -0.24868,-0.275166 0.27517,0.248673 c 0.2565,0.231799 0.31409,0.30166 0.24867,0.30166 -0.0146,0 -0.13839,-0.123825 -0.27516,-0.275167 z M 69.337306,89.707121 c 0,-1.234017 0.01184,-1.738842 0.0263,-1.121833 0.01447,0.617008 0.01447,1.626658 0,2.243666 -0.01447,0.617009 -0.0263,0.112184 -0.0263,-1.121833 z m 0.762,0 c 0,-1.234017 0.01184,-1.738842 0.0263,-1.121833 0.01447,0.617008 0.01447,1.626658 0,2.243666 -0.01447,0.617009 -0.0263,0.112184 -0.0263,-1.121833 z m 8.974666,0 c 0,-1.234017 0.01184,-1.738842 0.0263,-1.121833 0.01447,0.617008 0.01447,1.626658 0,2.243666 -0.01447,0.617009 -0.0263,0.112184 -0.0263,-1.121833 z m 3.725334,0 c 0,-1.234017 0.01184,-1.738842 0.0263,-1.121833 0.01447,0.617008 0.01447,1.626658 0,2.243666 -0.01447,0.617009 -0.0263,0.112184 -0.0263,-1.121833 z m 66.806824,0.930775 c -0.20148,-0.210297 -0.22416,-0.272862 -0.13042,-0.359833 0.0911,-0.08449 0.10083,-0.08302 0.0495,0.0074 -0.0401,0.07056 0.0245,0.205127 0.17275,0.359834 0.13021,0.135916 0.21771,0.24712 0.19442,0.24712 -0.0233,0 -0.15208,-0.114552 -0.28621,-0.254558 z m -44.08964,-3.026273 c 8.44021,-0.01189 22.25146,-0.01189 30.69167,0 8.44021,0.01189 1.53458,0.02163 -15.34583,0.02163 -16.88042,0 -23.786044,-0.0097 -15.34584,-0.02163 z"
         id="path310"
         inkscape:label="path310" />
      <path
         style="display:inline;fill:#8c8c8c;fill-opacity:1;stroke-width:0.0846667"
         d="m 31.557153,160.22042 -5.182824,-4.07804 v -6.96165 -6.96165 l -0.846666,-0.78063 -0.846667,-0.78062 V 118.54965 96.441465 l 0.784758,0.781495 c 0.431616,0.429822 0.812013,0.781494 0.845327,0.781494 0.03331,0 0.0707,-1.054404 0.08308,-2.343119 l 0.02251,-2.34312 2.524767,-1.763214 2.524769,-1.763213 H 46.02293 60.579662 v 0.508 0.508 H 46.156686 31.733711 l -2.150524,1.505116 -2.150524,1.505118 -0.01768,30.943378 -0.01768,30.94339 4.879173,3.83116 4.879174,3.83117 h 63.06234 63.06234 V 134.1609 104.95469 l -7.20444,-6.84062 c -3.96244,-3.762339 -7.23356,-6.851488 -7.26915,-6.864776 -0.0356,-0.01329 -0.19402,0.14746 -0.35206,0.357215 l -0.28735,0.381376 -30.80783,0.0026 c -30.443197,0.0026 -30.806451,6.78e-4 -30.691665,-0.161157 0.06389,-0.09008 0.87816,-1.059081 1.809493,-2.15334 l 1.693333,-1.989565 30.677789,-0.0057 30.67779,-0.0057 -0.44924,0.5715 c -0.24708,0.314325 -0.7331,0.931183 -1.08004,1.370794 l -0.63081,0.799295 0.4304,0.386039 c 0.23672,0.212322 3.59601,3.393528 7.46509,7.069347 l 7.03469,6.683302 v 5.67664 5.67665 l 0.88916,0.89192 0.88916,0.89193 -0.0213,22.00898 -0.0213,22.00898 -0.84666,-0.77742 -0.84667,-0.77742 -0.0226,2.0714 -0.0226,2.07139 h -63.7767 -63.776694 l -5.182823,-4.07804 z m 14.798509,0.52203 v -0.508 h 55.625998 55.626 v -26.20433 -26.20433 h 0.508 0.508 v 26.71233 26.71233 h -56.134 -56.133998 z m 99.483328,-1.75979 c 0,-0.0366 2.41935,-2.85815 5.37634,-6.27023 l 5.37633,-6.20378 v 6.27023 6.27024 h -5.37633 c -2.95699,0 -5.37634,-0.0299 -5.37634,-0.0665 z M 36.094385,152.72029 c -0.01928,-3.4343 -0.02872,-6.25475 -0.02097,-6.2677 0.0077,-0.0129 2.433781,2.76836 5.391192,6.18067 l 5.377111,6.20419 -2.888859,0.0514 c -1.588873,0.0283 -3.999135,0.0568 -5.356137,0.0635 l -2.467279,0.0121 z m -2.095671,-25.99267 0.0044,-27.834166 2.421593,-2.518833 2.421594,-2.518833 h 50.152021 50.152018 v 0.508 0.508 H 89.201708 39.253088 l -2.163712,2.252751 -2.163713,2.25275 v 27.592251 27.59225 h -0.465667 -0.465667 l 0.0044,-27.83417 z M 62.442329,89.707121 v -2.201333 h 0.635 0.635 v 2.201333 2.201333 h -0.635 -0.635 z m 1.947333,0 v -2.201333 h 0.635 0.635 v 2.201333 2.201333 h -0.635 -0.635 z m 1.778,0 v -2.201333 h 0.635 0.635 v 2.201333 2.201333 h -0.635 -0.635 z m 1.947333,0 v -2.201333 h 0.592667 0.592667 v 2.201333 2.201333 h -0.592667 -0.592667 z m 2.032,0 v -2.201333 h 0.592667 0.592666 v 2.201333 2.201333 h -0.592666 -0.592667 z m 1.862667,0 v -2.201333 h 0.635 0.635 v 2.201333 2.201333 h -0.635 -0.635 z m 1.778,0 v -2.201333 h 0.635 0.635 v 2.201333 2.201333 h -0.635 -0.635 z m 1.947333,0 v -2.201333 h 0.635 0.635 v 2.201333 2.201333 h -0.635 -0.635 z m 2.116667,0 v -2.201333 h 0.592666 0.592667 v 2.201333 2.201333 h -0.592667 -0.592666 z m 1.862666,0 v -2.201333 h 0.635 0.635 v 2.201333 2.201333 h -0.635 -0.635 z m 1.862667,0 v -2.201333 h 0.592667 0.592666 v 2.201333 2.201333 h -0.592666 -0.592667 z m 1.862667,0 v -2.201333 h 0.635 0.635 v 2.201333 2.201333 h -0.635 -0.635 z"
         id="path308" />
    </g>
  </g>
</svg>
